<?xml version="1.0" encoding="us-ascii" standalone="no"?><svg xmlns="http://www.w3.org/2000/svg" xmlns:xlink="http://www.w3.org/1999/xlink" contentStyleType="text/css" height="967px" preserveAspectRatio="none" style="width:1142px;height:967px;background:#FFFFFF;" version="1.1" viewBox="0 0 1142 967" width="1142px" zoomAndPan="magnify"><defs/><g><!--cluster hf--><g id="cluster_hf"><path d="M8.5,6 L25.5,6 A3.75,3.75 0 0 1 28,8.5 L35,28.2969 L1132.5,28.2969 A2.5,2.5 0 0 1 1135,30.7969 L1135,958 A2.5,2.5 0 0 1 1132.5,960.5 L8.5,960.5 A2.5,2.5 0 0 1 6,958 L6,8.5 A2.5,2.5 0 0 1 8.5,6 " fill="none" style="stroke:#000000;stroke-width:1.5;"/><line style="stroke:#000000;stroke-width:1.5;" x1="6" x2="35" y1="28.2969" y2="28.2969"/><text fill="#000000" font-family="sans-serif" font-size="14" font-weight="bold" lengthAdjust="spacing" textLength="16" x="10" y="20.9951">hf</text></g><!--cluster engine--><g id="cluster_engine"><path d="M32.5,290 L87.5,290 A3.75,3.75 0 0 1 90,292.5 L97,312.2969 L480.5,312.2969 A2.5,2.5 0 0 1 483,314.7969 L483,934 A2.5,2.5 0 0 1 480.5,936.5 L32.5,936.5 A2.5,2.5 0 0 1 30,934 L30,292.5 A2.5,2.5 0 0 1 32.5,290 " fill="none" style="stroke:#000000;stroke-width:1.5;"/><line style="stroke:#000000;stroke-width:1.5;" x1="30" x2="97" y1="312.2969" y2="312.2969"/><text fill="#000000" font-family="sans-serif" font-size="14" font-weight="bold" lengthAdjust="spacing" textLength="54" x="34" y="304.9951">engine</text></g><!--cluster gui--><g id="cluster_gui"><path d="M509.5,152 L534.5,152 A3.75,3.75 0 0 1 537,154.5 L544,174.2969 L1108.5,174.2969 A2.5,2.5 0 0 1 1111,176.7969 L1111,759 A2.5,2.5 0 0 1 1108.5,761.5 L509.5,761.5 A2.5,2.5 0 0 1 507,759 L507,154.5 A2.5,2.5 0 0 1 509.5,152 " fill="none" style="stroke:#000000;stroke-width:1.5;"/><line style="stroke:#000000;stroke-width:1.5;" x1="507" x2="544" y1="174.2969" y2="174.2969"/><text fill="#000000" font-family="sans-serif" font-size="14" font-weight="bold" lengthAdjust="spacing" textLength="24" x="511" y="166.9951">gui</text></g><!--class Main--><g id="elem_Main"><rect codeLine="3" fill="#F1F1F1" height="64.2969" id="Main" rx="2.5" ry="2.5" style="stroke:#181818;stroke-width:0.5;" width="158" x="452" y="41"/><ellipse cx="510.75" cy="57" fill="#ADD1B2" rx="11" ry="11" style="stroke:#181818;stroke-width:1.0;"/><path d="M513.7188,62.6406 Q513.1406,62.9375 512.5,63.0781 Q511.8594,63.2344 511.1563,63.2344 Q508.6563,63.2344 507.3281,61.5938 Q506.0156,59.9375 506.0156,56.8125 Q506.0156,53.6875 507.3281,52.0313 Q508.6563,50.375 511.1563,50.375 Q511.8594,50.375 512.5,50.5313 Q513.1563,50.6875 513.7188,50.9844 L513.7188,53.7031 Q513.0938,53.125 512.5,52.8594 Q511.9063,52.5781 511.2813,52.5781 Q509.9375,52.5781 509.25,53.6563 Q508.5625,54.7188 508.5625,56.8125 Q508.5625,58.9063 509.25,59.9844 Q509.9375,61.0469 511.2813,61.0469 Q511.9063,61.0469 512.5,60.7813 Q513.0938,60.5 513.7188,59.9219 L513.7188,62.6406 Z " fill="#000000"/><text fill="#000000" font-family="sans-serif" font-size="14" lengthAdjust="spacing" textLength="32" x="531.25" y="61.8467">Main</text><line style="stroke:#181818;stroke-width:0.5;" x1="453" x2="609" y1="73" y2="73"/><line style="stroke:#181818;stroke-width:0.5;" x1="453" x2="609" y1="81" y2="81"/><ellipse cx="463" cy="94.6484" fill="#84BE84" rx="3" ry="3" style="stroke:#038048;stroke-width:1.0;"/><text fill="#000000" font-family="sans-serif" font-size="14" lengthAdjust="spacing" text-decoration="underline" textLength="132" x="472" y="97.9951">main(args: String[])</text></g><!--class Vec2--><g id="elem_Vec2"><rect codeLine="9" fill="#F1F1F1" height="80.5938" id="Vec2" rx="2.5" ry="2.5" style="stroke:#181818;stroke-width:0.5;" width="90" x="131" y="839.5"/><ellipse cx="156.35" cy="855.5" fill="#ADD1B2" rx="11" ry="11" style="stroke:#181818;stroke-width:1.0;"/><path d="M159.3188,861.1406 Q158.7406,861.4375 158.1,861.5781 Q157.4594,861.7344 156.7563,861.7344 Q154.2563,861.7344 152.9281,860.0938 Q151.6156,858.4375 151.6156,855.3125 Q151.6156,852.1875 152.9281,850.5313 Q154.2563,848.875 156.7563,848.875 Q157.4594,848.875 158.1,849.0313 Q158.7563,849.1875 159.3188,849.4844 L159.3188,852.2031 Q158.6938,851.625 158.1,851.3594 Q157.5063,851.0781 156.8813,851.0781 Q155.5375,851.0781 154.85,852.1563 Q154.1625,853.2188 154.1625,855.3125 Q154.1625,857.4063 154.85,858.4844 Q155.5375,859.5469 156.8813,859.5469 Q157.5063,859.5469 158.1,859.2813 Q158.6938,859 159.3188,858.4219 L159.3188,861.1406 Z " fill="#000000"/><text fill="#000000" font-family="sans-serif" font-size="14" lengthAdjust="spacing" textLength="35" x="172.65" y="860.3467">Vec2</text><line style="stroke:#181818;stroke-width:0.5;" x1="132" x2="220" y1="871.5" y2="871.5"/><ellipse cx="142" cy="885.1484" fill="none" rx="3" ry="3" style="stroke:#038048;stroke-width:1.0;"/><text fill="#000000" font-family="sans-serif" font-size="14" lengthAdjust="spacing" textLength="64" x="151" y="888.4951">x: double</text><ellipse cx="142" cy="901.4453" fill="none" rx="3" ry="3" style="stroke:#038048;stroke-width:1.0;"/><text fill="#000000" font-family="sans-serif" font-size="14" lengthAdjust="spacing" textLength="64" x="151" y="904.792">y: double</text><line style="stroke:#181818;stroke-width:0.5;" x1="132" x2="220" y1="912.0938" y2="912.0938"/></g><!--class SimParameters--><g id="elem_SimParameters"><rect codeLine="13" fill="#F1F1F1" height="129.6016" id="SimParameters" rx="2.5" ry="2.5" style="stroke:#181818;stroke-width:0.5;" width="235" x="231.5" y="648.5"/><ellipse cx="292.75" cy="668.6328" fill="#FF7700" rx="11" ry="11" style="stroke:#181818;stroke-width:1.0;"/><path d="M292.2344,669.1953 Q290.375,668.4922 289.7188,667.7266 Q289.0781,666.9453 289.0781,665.6328 Q289.0781,663.9453 290.1563,662.9766 Q291.2344,662.0078 293.1094,662.0078 Q293.9688,662.0078 294.8125,662.2109 Q295.6719,662.3984 296.5156,662.7891 L296.5156,665.1797 Q295.7344,664.6172 294.9063,664.3359 Q294.0938,664.0391 293.2969,664.0391 Q292.4219,664.0391 291.9375,664.3984 Q291.4688,664.7578 291.4688,665.4141 Q291.4688,665.9297 291.8125,666.2734 Q292.1563,666.6016 293.25,667.0078 L294.3125,667.4141 Q295.7969,667.9609 296.5,668.8672 Q297.2188,669.7734 297.2188,671.1484 Q297.2188,673.0234 296.1094,673.9453 Q295,674.8672 292.75,674.8672 Q291.8281,674.8672 290.9063,674.6484 Q289.9844,674.4297 289.125,674.0078 L289.125,671.4766 Q290.0938,672.1641 291.0156,672.5078 Q291.9375,672.8516 292.8281,672.8516 Q293.7344,672.8516 294.2344,672.4453 Q294.7344,672.0234 294.7344,671.2891 Q294.7344,670.7266 294.3906,670.3203 Q294.0625,669.8984 293.4375,669.6484 L292.2344,669.1953 Z " fill="#000000"/><text fill="#000000" font-family="sans-serif" font-size="12" font-style="italic" lengthAdjust="spacing" textLength="73" x="328.75" y="664.6387">&#171;Singleton&#187;</text><text fill="#000000" font-family="sans-serif" font-size="14" lengthAdjust="spacing" textLength="104" x="313.25" y="680.4639">SimParameters</text><line style="stroke:#181818;stroke-width:0.5;" x1="232.5" x2="465.5" y1="688.7656" y2="688.7656"/><rect fill="none" height="6" style="stroke:#C82930;stroke-width:1.0;" width="6" x="239.5" y="699.4141"/><text fill="#000000" font-family="sans-serif" font-size="14" lengthAdjust="spacing" textLength="121" x="251.5" y="705.7607">data: List&lt;Vec2&gt;</text><rect fill="none" height="6" style="stroke:#C82930;stroke-width:1.0;" width="6" x="239.5" y="715.7109"/><text fill="#000000" font-family="sans-serif" font-size="14" lengthAdjust="spacing" textLength="121" x="251.5" y="722.0576">simRunning: bool</text><line style="stroke:#181818;stroke-width:0.5;" x1="232.5" x2="465.5" y1="729.3594" y2="729.3594"/><ellipse cx="242.5" cy="743.0078" fill="#84BE84" rx="3" ry="3" style="stroke:#038048;stroke-width:1.0;"/><text fill="#000000" font-family="sans-serif" font-size="14" lengthAdjust="spacing" text-decoration="underline" textLength="209" x="251.5" y="746.3545">getInstance() : SimParameters</text><line style="stroke:#181818;stroke-width:1.0;stroke-dasharray:1.0,2.0;" x1="232.5" x2="297" y1="761.8047" y2="761.8047"/><text fill="#000000" font-family="sans-serif" font-size="14" lengthAdjust="spacing" textLength="104" x="297" y="766.1514">getters/setters</text><line style="stroke:#181818;stroke-width:1.0;stroke-dasharray:1.0,2.0;" x1="401" x2="465.5" y1="761.8047" y2="761.8047"/></g><g id="elem_GMN7"><path d="M260.5,852.5 L260.5,907.8984 A0,0 0 0 0 260.5,907.8984 L437.5,907.8984 A0,0 0 0 0 437.5,907.8984 L437.5,862.5 L427.5,852.5 L353,852.5 L349,778.57 L345,852.5 L260.5,852.5 A0,0 0 0 0 260.5,852.5 " fill="#FEFFDD" style="stroke:#181818;stroke-width:0.5;"/><path d="M427.5,852.5 L427.5,862.5 L437.5,862.5 L427.5,852.5 " fill="#FEFFDD" style="stroke:#181818;stroke-width:0.5;"/><text fill="#000000" font-family="sans-serif" font-size="13" lengthAdjust="spacing" textLength="155" x="266.5" y="869.5669">Communication channel</text><text fill="#000000" font-family="sans-serif" font-size="13" lengthAdjust="spacing" textLength="156" x="266.5" y="884.6997">between GUI and engine</text><text fill="#000000" font-family="sans-serif" font-size="13" lengthAdjust="spacing" textLength="72" x="266.5" y="899.8325">(Controller)</text></g><!--class Space--><g id="elem_Space"><rect codeLine="25" fill="#F1F1F1" height="64.2969" id="Space" rx="2.5" ry="2.5" style="stroke:#181818;stroke-width:0.5;" width="94" x="361" y="325"/><ellipse cx="384.55" cy="341" fill="#ADD1B2" rx="11" ry="11" style="stroke:#181818;stroke-width:1.0;"/><path d="M387.5188,346.6406 Q386.9406,346.9375 386.3,347.0781 Q385.6594,347.2344 384.9563,347.2344 Q382.4563,347.2344 381.1281,345.5938 Q379.8156,343.9375 379.8156,340.8125 Q379.8156,337.6875 381.1281,336.0313 Q382.4563,334.375 384.9563,334.375 Q385.6594,334.375 386.3,334.5313 Q386.9563,334.6875 387.5188,334.9844 L387.5188,337.7031 Q386.8938,337.125 386.3,336.8594 Q385.7063,336.5781 385.0813,336.5781 Q383.7375,336.5781 383.05,337.6563 Q382.3625,338.7188 382.3625,340.8125 Q382.3625,342.9063 383.05,343.9844 Q383.7375,345.0469 385.0813,345.0469 Q385.7063,345.0469 386.3,344.7813 Q386.8938,344.5 387.5188,343.9219 L387.5188,346.6406 Z " fill="#000000"/><text fill="#000000" font-family="sans-serif" font-size="14" lengthAdjust="spacing" textLength="43" x="400.45" y="345.8467">Space</text><line style="stroke:#181818;stroke-width:0.5;" x1="362" x2="454" y1="357" y2="357"/><line style="stroke:#181818;stroke-width:0.5;" x1="362" x2="454" y1="365" y2="365"/><ellipse cx="372" cy="378.6484" fill="#84BE84" rx="3" ry="3" style="stroke:#038048;stroke-width:1.0;"/><text fill="#000000" font-family="sans-serif" font-size="14" lengthAdjust="spacing" textLength="68" x="381" y="381.9951">simulate()</text></g><!--class Star--><g id="elem_Star"><rect codeLine="28" fill="#F1F1F1" height="80.5938" id="Star" rx="2.5" ry="2.5" style="stroke:#181818;stroke-width:0.5;" width="326" x="46" y="482.5"/><ellipse cx="191.25" cy="498.5" fill="#ADD1B2" rx="11" ry="11" style="stroke:#181818;stroke-width:1.0;"/><path d="M194.2188,504.1406 Q193.6406,504.4375 193,504.5781 Q192.3594,504.7344 191.6563,504.7344 Q189.1563,504.7344 187.8281,503.0938 Q186.5156,501.4375 186.5156,498.3125 Q186.5156,495.1875 187.8281,493.5313 Q189.1563,491.875 191.6563,491.875 Q192.3594,491.875 193,492.0313 Q193.6563,492.1875 194.2188,492.4844 L194.2188,495.2031 Q193.5938,494.625 193,494.3594 Q192.4063,494.0781 191.7813,494.0781 Q190.4375,494.0781 189.75,495.1563 Q189.0625,496.2188 189.0625,498.3125 Q189.0625,500.4063 189.75,501.4844 Q190.4375,502.5469 191.7813,502.5469 Q192.4063,502.5469 193,502.2813 Q193.5938,502 194.2188,501.4219 L194.2188,504.1406 Z " fill="#000000"/><text fill="#000000" font-family="sans-serif" font-size="14" lengthAdjust="spacing" textLength="27" x="211.75" y="503.3467">Star</text><line style="stroke:#181818;stroke-width:0.5;" x1="47" x2="371" y1="514.5" y2="514.5"/><line style="stroke:#181818;stroke-width:0.5;" x1="47" x2="371" y1="522.5" y2="522.5"/><ellipse cx="57" cy="536.1484" fill="#84BE84" rx="3" ry="3" style="stroke:#038048;stroke-width:1.0;"/><text fill="#000000" font-family="sans-serif" font-size="14" lengthAdjust="spacing" textLength="300" x="66" y="539.4951">calculateAccelaration(a: Star, b: Star) : Vec2</text><ellipse cx="57" cy="552.4453" fill="#84BE84" rx="3" ry="3" style="stroke:#038048;stroke-width:1.0;"/><text fill="#000000" font-family="sans-serif" font-size="14" lengthAdjust="spacing" textLength="241" x="66" y="555.792">tick(acceleration: Vec2, dt: double)</text></g><!--class GravFrame--><g id="elem_GravFrame"><rect codeLine="35" fill="#F1F1F1" height="48" id="GravFrame" rx="2.5" ry="2.5" style="stroke:#181818;stroke-width:0.5;" width="106" x="777" y="191"/><ellipse cx="792" cy="207" fill="#ADD1B2" rx="11" ry="11" style="stroke:#181818;stroke-width:1.0;"/><path d="M794.9688,212.6406 Q794.3906,212.9375 793.75,213.0781 Q793.1094,213.2344 792.4063,213.2344 Q789.9063,213.2344 788.5781,211.5938 Q787.2656,209.9375 787.2656,206.8125 Q787.2656,203.6875 788.5781,202.0313 Q789.9063,200.375 792.4063,200.375 Q793.1094,200.375 793.75,200.5313 Q794.4063,200.6875 794.9688,200.9844 L794.9688,203.7031 Q794.3438,203.125 793.75,202.8594 Q793.1563,202.5781 792.5313,202.5781 Q791.1875,202.5781 790.5,203.6563 Q789.8125,204.7188 789.8125,206.8125 Q789.8125,208.9063 790.5,209.9844 Q791.1875,211.0469 792.5313,211.0469 Q793.1563,211.0469 793.75,210.7813 Q794.3438,210.5 794.9688,209.9219 L794.9688,212.6406 Z " fill="#000000"/><text fill="#000000" font-family="sans-serif" font-size="14" lengthAdjust="spacing" textLength="74" x="806" y="211.8467">GravFrame</text><line style="stroke:#181818;stroke-width:0.5;" x1="778" x2="882" y1="223" y2="223"/><line style="stroke:#181818;stroke-width:0.5;" x1="778" x2="882" y1="231" y2="231"/></g><!--class ColorTheme--><g id="elem_ColorTheme"><rect codeLine="36" fill="#F1F1F1" height="56.2656" id="ColorTheme" rx="2.5" ry="2.5" style="stroke:#181818;stroke-width:0.5;" width="117" x="590.5" y="187"/><ellipse cx="605.5" cy="207.1328" fill="#DA70D6" rx="11" ry="11" style="stroke:#181818;stroke-width:1.0;"/><path d="M601.375,209.0547 L601.375,201.2422 L603.8281,201.2422 L603.8281,209.6797 Q603.8281,210.6016 604.2969,211.1328 Q604.7813,211.6641 605.6094,211.6641 Q606.4531,211.6641 606.9219,211.1328 Q607.3906,210.6016 607.3906,209.6797 L607.3906,201.2422 L609.8438,201.2422 L609.8438,209.0547 Q609.8438,211.5859 608.8438,212.7266 Q607.8438,213.8672 605.6094,213.8672 Q603.3906,213.8672 602.375,212.7266 Q601.375,211.5859 601.375,209.0547 Z " fill="#000000"/><text fill="#000000" font-family="sans-serif" font-size="12" font-style="italic" lengthAdjust="spacing" textLength="49" x="637.5" y="203.1387">&#171;Utility&#187;</text><text fill="#000000" font-family="sans-serif" font-size="14" lengthAdjust="spacing" textLength="85" x="619.5" y="218.9639">ColorTheme</text><line style="stroke:#181818;stroke-width:0.5;" x1="591.5" x2="706.5" y1="227.2656" y2="227.2656"/><line style="stroke:#181818;stroke-width:0.5;" x1="591.5" x2="706.5" y1="235.2656" y2="235.2656"/></g><!--class ControlPanel--><g id="elem_ControlPanel"><rect codeLine="37" fill="#F1F1F1" height="48" id="ControlPanel" rx="2.5" ry="2.5" style="stroke:#181818;stroke-width:0.5;" width="120" x="975" y="333"/><ellipse cx="990" cy="349" fill="#ADD1B2" rx="11" ry="11" style="stroke:#181818;stroke-width:1.0;"/><path d="M992.9688,354.6406 Q992.3906,354.9375 991.75,355.0781 Q991.1094,355.2344 990.4063,355.2344 Q987.9063,355.2344 986.5781,353.5938 Q985.2656,351.9375 985.2656,348.8125 Q985.2656,345.6875 986.5781,344.0313 Q987.9063,342.375 990.4063,342.375 Q991.1094,342.375 991.75,342.5313 Q992.4063,342.6875 992.9688,342.9844 L992.9688,345.7031 Q992.3438,345.125 991.75,344.8594 Q991.1563,344.5781 990.5313,344.5781 Q989.1875,344.5781 988.5,345.6563 Q987.8125,346.7188 987.8125,348.8125 Q987.8125,350.9063 988.5,351.9844 Q989.1875,353.0469 990.5313,353.0469 Q991.1563,353.0469 991.75,352.7813 Q992.3438,352.5 992.9688,351.9219 L992.9688,354.6406 Z " fill="#000000"/><text fill="#000000" font-family="sans-serif" font-size="14" lengthAdjust="spacing" textLength="88" x="1004" y="353.8467">ControlPanel</text><line style="stroke:#181818;stroke-width:0.5;" x1="976" x2="1094" y1="365" y2="365"/><line style="stroke:#181818;stroke-width:0.5;" x1="976" x2="1094" y1="373" y2="373"/></g><!--class ButtonPanel--><g id="elem_ButtonPanel"><rect codeLine="38" fill="#F1F1F1" height="129.4844" id="ButtonPanel" rx="2.5" ry="2.5" style="stroke:#181818;stroke-width:0.5;" width="144" x="644" y="458.5"/><ellipse cx="671.15" cy="474.5" fill="#ADD1B2" rx="11" ry="11" style="stroke:#181818;stroke-width:1.0;"/><path d="M674.1188,480.1406 Q673.5406,480.4375 672.9,480.5781 Q672.2594,480.7344 671.5563,480.7344 Q669.0563,480.7344 667.7281,479.0938 Q666.4156,477.4375 666.4156,474.3125 Q666.4156,471.1875 667.7281,469.5313 Q669.0563,467.875 671.5563,467.875 Q672.2594,467.875 672.9,468.0313 Q673.5563,468.1875 674.1188,468.4844 L674.1188,471.2031 Q673.4938,470.625 672.9,470.3594 Q672.3063,470.0781 671.6813,470.0781 Q670.3375,470.0781 669.65,471.1563 Q668.9625,472.2188 668.9625,474.3125 Q668.9625,476.4063 669.65,477.4844 Q670.3375,478.5469 671.6813,478.5469 Q672.3063,478.5469 672.9,478.2813 Q673.4938,478 674.1188,477.4219 L674.1188,480.1406 Z " fill="#000000"/><text fill="#000000" font-family="sans-serif" font-size="14" lengthAdjust="spacing" textLength="85" x="687.85" y="479.3467">ButtonPanel</text><line style="stroke:#181818;stroke-width:0.5;" x1="645" x2="787" y1="490.5" y2="490.5"/><rect fill="none" height="6" style="stroke:#C82930;stroke-width:1.0;" width="6" x="652" y="501.1484"/><text fill="#000000" font-family="sans-serif" font-size="14" lengthAdjust="spacing" textLength="86" x="664" y="507.4951">play: JButton</text><rect fill="none" height="6" style="stroke:#C82930;stroke-width:1.0;" width="6" x="652" y="517.4453"/><text fill="#000000" font-family="sans-serif" font-size="14" lengthAdjust="spacing" textLength="95" x="664" y="523.792">reset: JButton</text><rect fill="none" height="6" style="stroke:#C82930;stroke-width:1.0;" width="6" x="652" y="533.7422"/><text fill="#000000" font-family="sans-serif" font-size="14" lengthAdjust="spacing" textLength="118" x="664" y="540.0889">recenter: JButton</text><rect fill="none" height="6" style="stroke:#C82930;stroke-width:1.0;" width="6" x="652" y="550.0391"/><text fill="#000000" font-family="sans-serif" font-size="14" lengthAdjust="spacing" textLength="91" x="664" y="556.3857">save: JButton</text><rect fill="none" height="6" style="stroke:#C82930;stroke-width:1.0;" width="6" x="652" y="566.3359"/><text fill="#000000" font-family="sans-serif" font-size="14" lengthAdjust="spacing" textLength="88" x="664" y="572.6826">load: JButton</text><line style="stroke:#181818;stroke-width:0.5;" x1="645" x2="787" y1="579.9844" y2="579.9844"/></g><!--class VectorInputPanel--><g id="elem_VectorInputPanel"><rect codeLine="45" fill="#F1F1F1" height="113.1875" id="VectorInputPanel" rx="2.5" ry="2.5" style="stroke:#181818;stroke-width:0.5;" width="150" x="823" y="466.5"/><ellipse cx="838" cy="482.5" fill="#ADD1B2" rx="11" ry="11" style="stroke:#181818;stroke-width:1.0;"/><path d="M840.9688,488.1406 Q840.3906,488.4375 839.75,488.5781 Q839.1094,488.7344 838.4063,488.7344 Q835.9063,488.7344 834.5781,487.0938 Q833.2656,485.4375 833.2656,482.3125 Q833.2656,479.1875 834.5781,477.5313 Q835.9063,475.875 838.4063,475.875 Q839.1094,475.875 839.75,476.0313 Q840.4063,476.1875 840.9688,476.4844 L840.9688,479.2031 Q840.3438,478.625 839.75,478.3594 Q839.1563,478.0781 838.5313,478.0781 Q837.1875,478.0781 836.5,479.1563 Q835.8125,480.2188 835.8125,482.3125 Q835.8125,484.4063 836.5,485.4844 Q837.1875,486.5469 838.5313,486.5469 Q839.1563,486.5469 839.75,486.2813 Q840.3438,486 840.9688,485.4219 L840.9688,488.1406 Z " fill="#000000"/><text fill="#000000" font-family="sans-serif" font-size="14" lengthAdjust="spacing" textLength="118" x="852" y="487.3467">VectorInputPanel</text><line style="stroke:#181818;stroke-width:0.5;" x1="824" x2="972" y1="498.5" y2="498.5"/><line style="stroke:#181818;stroke-width:0.5;" x1="824" x2="972" y1="506.5" y2="506.5"/><rect fill="#F24D5C" height="6" style="stroke:#C82930;stroke-width:1.0;" width="6" x="831" y="517.1484"/><text fill="#000000" font-family="sans-serif" font-size="14" lengthAdjust="spacing" textLength="73" x="843" y="523.4951">readData()</text><ellipse cx="834" cy="536.4453" fill="#84BE84" rx="3" ry="3" style="stroke:#038048;stroke-width:1.0;"/><text fill="#000000" font-family="sans-serif" font-size="14" lengthAdjust="spacing" textLength="76" x="843" y="539.792">readInput()</text><ellipse cx="834" cy="552.7422" fill="#84BE84" rx="3" ry="3" style="stroke:#038048;stroke-width:1.0;"/><text fill="#000000" font-family="sans-serif" font-size="14" lengthAdjust="spacing" textLength="38" x="843" y="556.0889">lock()</text><ellipse cx="834" cy="569.0391" fill="#84BE84" rx="3" ry="3" style="stroke:#038048;stroke-width:1.0;"/><text fill="#000000" font-family="sans-serif" font-size="14" lengthAdjust="spacing" textLength="56" x="843" y="572.3857">unlock()</text></g><!--class Dial--><g id="elem_Dial"><rect codeLine="51" fill="#F1F1F1" height="64.2969" id="Dial" rx="2.5" ry="2.5" style="stroke:#181818;stroke-width:0.5;" width="152" x="710" y="681.5"/><ellipse cx="769.25" cy="697.5" fill="#ADD1B2" rx="11" ry="11" style="stroke:#181818;stroke-width:1.0;"/><path d="M772.2188,703.1406 Q771.6406,703.4375 771,703.5781 Q770.3594,703.7344 769.6563,703.7344 Q767.1563,703.7344 765.8281,702.0938 Q764.5156,700.4375 764.5156,697.3125 Q764.5156,694.1875 765.8281,692.5313 Q767.1563,690.875 769.6563,690.875 Q770.3594,690.875 771,691.0313 Q771.6563,691.1875 772.2188,691.4844 L772.2188,694.2031 Q771.5938,693.625 771,693.3594 Q770.4063,693.0781 769.7813,693.0781 Q768.4375,693.0781 767.75,694.1563 Q767.0625,695.2188 767.0625,697.3125 Q767.0625,699.4063 767.75,700.4844 Q768.4375,701.5469 769.7813,701.5469 Q770.4063,701.5469 771,701.2813 Q771.5938,701 772.2188,700.4219 L772.2188,703.1406 Z " fill="#000000"/><text fill="#000000" font-family="sans-serif" font-size="14" lengthAdjust="spacing" textLength="25" x="789.75" y="702.3467">Dial</text><line style="stroke:#181818;stroke-width:0.5;" x1="711" x2="861" y1="713.5" y2="713.5"/><line style="stroke:#181818;stroke-width:0.5;" x1="711" x2="861" y1="721.5" y2="721.5"/><ellipse cx="721" cy="735.1484" fill="#84BE84" rx="3" ry="3" style="stroke:#038048;stroke-width:1.0;"/><text fill="#000000" font-family="sans-serif" font-size="14" lengthAdjust="spacing" textLength="126" x="730" y="738.4951">paintComponent()</text></g><!--class Observatory--><g id="elem_Observatory"><rect codeLine="54" fill="#F1F1F1" height="64.2969" id="Observatory" rx="2.5" ry="2.5" style="stroke:#181818;stroke-width:0.5;" width="152" x="788" y="325"/><ellipse cx="819.65" cy="341" fill="#ADD1B2" rx="11" ry="11" style="stroke:#181818;stroke-width:1.0;"/><path d="M822.6188,346.6406 Q822.0406,346.9375 821.4,347.0781 Q820.7594,347.2344 820.0563,347.2344 Q817.5563,347.2344 816.2281,345.5938 Q814.9156,343.9375 814.9156,340.8125 Q814.9156,337.6875 816.2281,336.0313 Q817.5563,334.375 820.0563,334.375 Q820.7594,334.375 821.4,334.5313 Q822.0563,334.6875 822.6188,334.9844 L822.6188,337.7031 Q821.9938,337.125 821.4,336.8594 Q820.8063,336.5781 820.1813,336.5781 Q818.8375,336.5781 818.15,337.6563 Q817.4625,338.7188 817.4625,340.8125 Q817.4625,342.9063 818.15,343.9844 Q818.8375,345.0469 820.1813,345.0469 Q820.8063,345.0469 821.4,344.7813 Q821.9938,344.5 822.6188,343.9219 L822.6188,346.6406 Z " fill="#000000"/><text fill="#000000" font-family="sans-serif" font-size="14" lengthAdjust="spacing" textLength="83" x="837.35" y="345.8467">Observatory</text><line style="stroke:#181818;stroke-width:0.5;" x1="789" x2="939" y1="357" y2="357"/><line style="stroke:#181818;stroke-width:0.5;" x1="789" x2="939" y1="365" y2="365"/><ellipse cx="799" cy="378.6484" fill="#84BE84" rx="3" ry="3" style="stroke:#038048;stroke-width:1.0;"/><text fill="#000000" font-family="sans-serif" font-size="14" lengthAdjust="spacing" textLength="126" x="808" y="381.9951">paintComponent()</text></g><!--class Renderer--><g id="elem_Renderer"><rect codeLine="57" fill="#F1F1F1" height="80.5938" id="Renderer" rx="2.5" ry="2.5" style="stroke:#181818;stroke-width:0.5;" width="229" x="523.5" y="316.5"/><ellipse cx="601.25" cy="332.5" fill="#ADD1B2" rx="11" ry="11" style="stroke:#181818;stroke-width:1.0;"/><path d="M604.2188,338.1406 Q603.6406,338.4375 603,338.5781 Q602.3594,338.7344 601.6563,338.7344 Q599.1563,338.7344 597.8281,337.0938 Q596.5156,335.4375 596.5156,332.3125 Q596.5156,329.1875 597.8281,327.5313 Q599.1563,325.875 601.6563,325.875 Q602.3594,325.875 603,326.0313 Q603.6563,326.1875 604.2188,326.4844 L604.2188,329.2031 Q603.5938,328.625 603,328.3594 Q602.4063,328.0781 601.7813,328.0781 Q600.4375,328.0781 599.75,329.1563 Q599.0625,330.2188 599.0625,332.3125 Q599.0625,334.4063 599.75,335.4844 Q600.4375,336.5469 601.7813,336.5469 Q602.4063,336.5469 603,336.2813 Q603.5938,336 604.2188,335.4219 L604.2188,338.1406 Z " fill="#000000"/><text fill="#000000" font-family="sans-serif" font-size="14" lengthAdjust="spacing" textLength="65" x="621.75" y="337.3467">Renderer</text><line style="stroke:#181818;stroke-width:0.5;" x1="524.5" x2="751.5" y1="348.5" y2="348.5"/><line style="stroke:#181818;stroke-width:0.5;" x1="524.5" x2="751.5" y1="356.5" y2="356.5"/><ellipse cx="534.5" cy="370.1484" fill="#84BE84" rx="3" ry="3" style="stroke:#038048;stroke-width:1.0;"/><text fill="#000000" font-family="sans-serif" font-size="14" lengthAdjust="spacing" textLength="203" x="543.5" y="373.4951">addComponent(JComponent)</text><rect fill="#F24D5C" height="6" style="stroke:#C82930;stroke-width:1.0;" width="6" x="531.5" y="383.4453"/><text fill="#000000" font-family="sans-serif" font-size="14" lengthAdjust="spacing" textLength="59" x="543.5" y="389.792">paintAll()</text></g><!--reverse link Main to GravFrame--><g id="link_Main_GravFrame"><path codeLine="64" d="M621.5926,101.5495 C657.4826,113.5295 688.55,125.62 725,144 C751.41,157.32 779.16,176.06 799.5,190.8 " fill="none" id="Main-backto-GravFrame" style="stroke:#181818;stroke-width:1.0;"/><polygon fill="#181818" points="610.21,97.75,614.6348,103.4439,621.5926,101.5495,617.1678,95.8555,610.21,97.75" style="stroke:#181818;stroke-width:1.0;"/></g><!--reverse link Main to Space--><g id="link_Main_Space"><path codeLine="65" d="M512.5708,116.2585 C488.9208,170.4585 445.38,270.3 421.69,324.6 " fill="none" id="Main-backto-Space" style="stroke:#181818;stroke-width:1.0;"/><polygon fill="#181818" points="517.37,105.26,511.3042,109.1595,512.5708,116.2585,518.6366,112.359,517.37,105.26" style="stroke:#181818;stroke-width:1.0;"/></g><!--reverse link Space to Star--><g id="link_Space_Star"><path codeLine="68" d="M360.8399,396.8622 C328.6999,423.3522 291.69,453.86 256.97,482.47 " fill="none" id="Space-backto-Star" style="stroke:#181818;stroke-width:1.0;"/><polygon fill="#181818" points="370.1,389.23,362.9259,389.9594,360.8399,396.8622,368.014,396.1328,370.1,389.23" style="stroke:#181818;stroke-width:1.0;"/><text fill="#000000" font-family="sans-serif" font-size="13" lengthAdjust="spacing" textLength="8" x="256.5273" y="471.3281">3</text></g><!--reverse link SimParameters to Vec2--><g id="link_SimParameters_Vec2"><path codeLine="69" d="M272.9234,786.8386 C251.3834,807.3186 236.88,821.11 217.73,839.32 " fill="none" id="SimParameters-backto-Vec2" style="stroke:#181818;stroke-width:1.0;"/><polygon fill="#181818" points="281.62,778.57,274.5155,779.8054,272.9234,786.8386,280.0279,785.6032,281.62,778.57" style="stroke:#181818;stroke-width:1.0;"/><text fill="#000000" font-family="sans-serif" font-size="13" lengthAdjust="spacing" textLength="8" x="215.979" y="828.4517">6</text></g><!--reverse link VectorInputPanel to Dial--><g id="link_VectorInputPanel_Dial"><path codeLine="72" d="M858.8713,589.8569 C839.1313,623.0869 820.89,653.77 804.49,681.39 " fill="none" id="VectorInputPanel-backto-Dial" style="stroke:#181818;stroke-width:1.0;"/><polygon fill="#181818" points="865,579.54,858.4967,582.6556,858.8713,589.8569,865.3746,586.7414,865,579.54" style="stroke:#181818;stroke-width:1.0;"/></g><!--reverse link GravFrame to ControlPanel--><g id="link_GravFrame_ControlPanel"><path codeLine="73" d="M893.8806,244.2779 C917.7206,255.7079 934.82,265.42 958,282 C978.81,296.88 999.56,317.22 1014.27,332.81 " fill="none" id="GravFrame-backto-ControlPanel" style="stroke:#181818;stroke-width:1.0;"/><polygon fill="#181818" points="883.06,239.09,886.741,245.2908,893.8806,244.2779,890.1996,238.0771,883.06,239.09" style="stroke:#181818;stroke-width:1.0;"/></g><!--reverse link GravFrame to Observatory--><g id="link_GravFrame_Observatory"><path codeLine="74" d="M838.4443,250.7805 C844.1443,274.2305 850.16,299.02 856.47,324.98 " fill="none" id="GravFrame-backto-Observatory" style="stroke:#181818;stroke-width:1.0;"/><polygon fill="#181818" points="835.61,239.12,833.1403,245.895,838.4443,250.7805,840.914,244.0055,835.61,239.12" style="stroke:#181818;stroke-width:1.0;"/></g><!--reverse link GravFrame to Renderer--><g id="link_GravFrame_Renderer"><path codeLine="75" d="M788.6038,246.1899 C759.8438,267.1599 726.53,291.44 692.31,316.4 " fill="none" id="GravFrame-backto-Renderer" style="stroke:#181818;stroke-width:1.0;"/><polygon fill="#181818" points="798.3,239.12,791.0953,239.4229,788.6038,246.1899,795.8085,245.887,798.3,239.12" style="stroke:#181818;stroke-width:1.0;"/></g><!--reverse link ControlPanel to ButtonPanel--><g id="link_ControlPanel_ButtonPanel"><path codeLine="76" d="M981.0843,386.5203 C970.1643,392.1003 969.07,392.45 958,397.5 C891.77,427.7 869.95,423.73 806,458.5 C800.04,461.74 794,465.31 788.01,469.04 " fill="none" id="ControlPanel-backto-ButtonPanel" style="stroke:#181818;stroke-width:1.0;"/><polygon fill="#181818" points="991.77,381.06,984.607,380.2282,981.0843,386.5203,988.2472,387.3521,991.77,381.06" style="stroke:#181818;stroke-width:1.0;"/></g><!--reverse link ControlPanel to VectorInputPanel--><g id="link_ControlPanel_VectorInputPanel"><path codeLine="77" d="M1007.9659,390.3587 C989.5259,412.4287 968.74,437.32 944.41,466.44 " fill="none" id="ControlPanel-backto-VectorInputPanel" style="stroke:#181818;stroke-width:1.0;"/><polygon fill="#181818" points="1015.66,381.15,1008.7434,383.1897,1007.9659,390.3587,1014.8825,388.3191,1015.66,381.15" style="stroke:#181818;stroke-width:1.0;"/><text fill="#000000" font-family="sans-serif" font-size="13" lengthAdjust="spacing" textLength="8" x="941.8438" y="455.2957">6</text></g><!--link Observatory to SimParameters--><g id="link_Observatory_SimParameters"><path codeLine="80" d="M790.45,389.02 C721.57,418.09 628.89,457.29 627,458.5 C542.83,512.53 464.1053,588.3627 411.0553,644.1327 " fill="none" id="Observatory-to-SimParameters" style="stroke:#181818;stroke-width:1.0;"/><polygon fill="#181818" points="406.92,648.48,416.0212,644.7159,410.3661,644.8572,410.2247,639.2021,406.92,648.48" style="stroke:#181818;stroke-width:1.0;"/></g><!--link VectorInputPanel to SimParameters--><g id="link_VectorInputPanel_SimParameters"><path codeLine="81" d="M822.81,579.32 C817.26,582.34 811.62,585.1 806,587.5 C681.22,640.65 636.84,609.32 507,648.5 C493.82,652.48 485.8516,655.05 472.4116,659.99 " fill="none" id="VectorInputPanel-to-SimParameters" style="stroke:#181818;stroke-width:1.0;"/><polygon fill="#181818" points="466.78,662.06,476.6074,662.7095,471.473,660.335,473.8475,655.2006,466.78,662.06" style="stroke:#181818;stroke-width:1.0;"/></g><!--link Star to SimParameters--><g id="link_Star_SimParameters"><path codeLine="82" d="M238.35,563.52 C256.55,588.02 276.7825,615.2632 297.6525,643.3632 " fill="none" id="Star-to-SimParameters" style="stroke:#181818;stroke-width:1.0;"/><polygon fill="#181818" points="301.23,648.18,299.075,638.5698,298.2488,644.166,292.6526,643.3398,301.23,648.18" style="stroke:#181818;stroke-width:1.0;"/></g><!--link Space to SimParameters--><g id="link_Space_SimParameters"><path codeLine="83" d="M407.9,389.13 C407.23,433.57 404.01,517.55 390,587.5 C385.96,607.66 381.5947,623.397 375.1647,642.717 " fill="none" id="Space-to-SimParameters" style="stroke:#181818;stroke-width:1.0;"/><polygon fill="#181818" points="373.27,648.41,379.9074,641.1337,374.8489,643.6658,372.3167,638.6074,373.27,648.41" style="stroke:#181818;stroke-width:1.0;"/></g><!--reverse link Star to Vec2--><g id="link_Star_Vec2"><path codeLine="84" d="M199.4718,575.4869 C195.1618,599.8769 192.09,619.99 189,648.5 C181.78,715.25 178.44,793.33 177,839.34 " fill="none" id="Star-backto-Vec2" style="stroke:#181818;stroke-width:1.0;stroke-dasharray:7.0,7.0;"/><polygon fill="none" points="201.56,563.67,196.5769,568.8824,199.4718,575.4869,204.4549,570.2745,201.56,563.67" style="stroke:#181818;stroke-width:1.0;"/><text fill="#000000" font-family="sans-serif" font-size="13" lengthAdjust="spacing" textLength="23" x="190" y="718.0669">pos</text></g><!--reverse link Star to Vec2--><g id="link_Star_Vec2"><path codeLine="85" d="M179.3684,574.1627 C166.4784,597.8727 157.63,618.58 151,648.5 C136.38,714.52 151.71,793.16 163.98,839.42 " fill="none" id="Star-backto-Vec2-1" style="stroke:#181818;stroke-width:1.0;stroke-dasharray:7.0,7.0;"/><polygon fill="none" points="185.1,563.62,178.72,566.9808,179.3684,574.1627,185.7485,570.8019,185.1,563.62" style="stroke:#181818;stroke-width:1.0;"/><text fill="#000000" font-family="sans-serif" font-size="13" lengthAdjust="spacing" textLength="18" x="152" y="718.0669">vel</text></g><!--reverse link VectorInputPanel to Vec2--><g id="link_VectorInputPanel_Vec2"><path codeLine="86" d="M914.8293,591.4037 C926.2293,649.2737 930.49,726.74 880,778.5 C780.7,880.29 378.25,795.57 243,839.5 C235.68,841.88 228.3,845.16 221.24,848.81 " fill="none" id="VectorInputPanel-backto-Vec2" style="stroke:#181818;stroke-width:1.0;stroke-dasharray:7.0,7.0;"/><polygon fill="none" points="912.51,579.63,909.7451,586.29,914.8293,591.4037,917.5942,584.7437,912.51,579.63" style="stroke:#181818;stroke-width:1.0;"/></g><!--SRC=[bLHHJzim47xFhx2wXwLRcw5D6bA4Ah6o8j0c48ozJ1Ew9aTguTYHutH3gFzzPvi6cuI7zQNjTz_vxhxxx0QAUwYGRUxOOyBeKmXeM_OTk7m2xESzUsmD65xiM4sH57JLvkpQQ2whNx-dZhTBTadIzCTbA2ikCJhr9nOVerF_vgnKtLfWW3r4s2v8l-Rr9MYeqQ1ksT4HIwzdRrQhmyE3Woa5PINGACaMYw36d9LW86VVU6kERFr546fvVTL9IPavMoib-j3jxTZe5PepINzaWUcKvN4_VKAM4SyY7rh_dMN1958Pf5h6g9gfkrUEMAgwxYGlg2pDKsn0IdnkRetc3w9afpTd36J9lD1zE5qgQRGI0hLV31B7bWsLf3rXj0cIeXDWQB2Xx0Pqn2r058vyN1Geg7tRPWgvOyxOsl-m2bd1WqHIyJu5cuG-oJDch3JxfOzxgUfuPAHJ3TkLbIt0baee_ME3DJfhtCmkTB7XvPJT62wuUI1VH6mdqYNibVNmbuus8nqQcQWHGBuyz-40rqXB7WyKA6cfOx4MjZY62mLbZE_YosEKFfDDPuRzQOJoX8p-j3uljmKTFqA5eYM4G2S3AAnuma54Ys_exXioPwCa3JUISR5kKM-1-dpulyGhCYbgZ7q6PVcSSzx_d8PxiGSV2v46lddhNg_4FM7lvlF0B3ta_6-PN_tTyVV1HYQV9iwzIVpOkD3dYJSqvT7TImOBiIIhMT9NT51ajJWKwFKYiXSa2RDT9B3eCFZKOzINxRUnexH9k9_vVF7Y-HaCDAIujs04TlgzGbTPvb_-d4qQrKw6w1R5P5XzpqYIVm00]--></g></svg>